Coordinates
version=1
nRows=31
nColumns=38
inDegrees=no

Units are S.I. units (second, meters, Newtons, ...)
If the header above contains a line with 'inDegrees', this indicates whether rotational values are in degrees (yes) or radians (no).

endheader
time	pelvis_tilt	pelvis_list	pelvis_rotation	pelvis_tx	pelvis_ty	pelvis_tz	hip_flexion_r	hip_adduction_r	hip_rotation_r	knee_angle_r	ankle_angle_r	subtalar_angle_r	mtp_angle_r	hip_flexion_l	hip_adduction_l	hip_rotation_l	knee_angle_l	ankle_angle_l	subtalar_angle_l	mtp_angle_l	lumbar_extension	lumbar_bending	lumbar_rotation	arm_flex_r	arm_add_r	arm_rot_r	elbow_flex_r	pro_sup_r	wrist_flex_r	wrist_dev_r	arm_flex_l	arm_add_l	arm_rot_l	elbow_flex_l	pro_sup_l	wrist_flex_l	wrist_dev_l
44.88	3.12375	1.47216	-1.55456	0.704919	-0.20742	0.783651	0.69251	-0.138609	0.0457748	1.38832	0.430084	0	0	0.621632	-0.275138	-0.0727054	1.34853	0.413252	0	0	-0.708497	-0.0261638	0.0624913	0.50057	-0.266753	0.760637	0.271602	0.998692	0	0	0.422312	-0.187169	0.35042	0.500812	1.11703	0	0
44.89	3.11908	1.47326	-1.54931	0.705584	-0.207149	0.786628	0.685294	-0.138523	0.0414293	1.37559	0.426538	0	0	0.615114	-0.275416	-0.0747409	1.33549	0.408629	0	0	-0.703651	-0.0268398	0.0627514	0.498466	-0.264127	0.763444	0.273898	1.00638	0	0	0.422104	-0.184705	0.347995	0.501167	1.1148	0	0
44.9	-3.132	1.47693	-1.57571	0.706428	-0.207991	0.790282	0.680105	-0.142072	0.0372399	1.35982	0.420258	0	0	0.611143	-0.262809	-0.0668939	1.31557	0.398345	0	0	-0.700105	-0.0295969	0.0575059	0.498775	-0.258815	0.765258	0.276267	1.01077	0	0	0.426333	-0.185116	0.347561	0.502586	1.11109	0	0
44.91	-3.13669	1.47891	-1.56924	0.706909	-0.207844	0.793369	0.672996	-0.142744	0.0320441	1.34555	0.415944	0	0	0.605227	-0.262124	-0.0681946	1.30096	0.39318	0	0	-0.694262	-0.0295143	0.0566462	0.496431	-0.255835	0.76772	0.278797	1.01751	0	0	0.42487	-0.183451	0.346156	0.505717	1.10686	0	0
44.92	-3.06111	1.47951	-1.63722	0.707856	-0.20907	0.798295	0.663109	-0.150286	0.0283348	1.32612	0.407993	0	0	0.599559	-0.256467	-0.0751925	1.28026	0.376519	0	0	-0.696111	-0.0354908	0.04773	0.498362	-0.24814	0.768637	0.279865	1.02266	0	0	0.430828	-0.186353	0.348206	0.510117	1.10521	0	0
44.93	3.14104	1.48283	-1.56114	0.708004	-0.207431	0.799984	0.657666	-0.14319	0.0227117	1.31538	0.407667	0	0	0.590932	-0.261299	-0.0730842	1.26859	0.382965	0	0	-0.682283	-0.0302425	0.0554077	0.490737	-0.246814	0.757974	0.279685	1.06623	0	0	0.420262	-0.179838	0.336067	0.513809	1.11895	0	0
44.94	3.13937	1.48523	-1.55888	0.708723	-0.20717	0.803419	0.650312	-0.142621	0.0188491	1.29978	0.402935	0	0	0.583465	-0.260451	-0.0749647	1.25158	0.377115	0	0	-0.675458	-0.0311599	0.055504	0.487311	-0.244097	0.776048	0.282947	1.04537	0	0	0.417843	-0.179808	0.339386	0.519068	1.11057	0	0
44.95	3.14055	1.48543	-1.55939	0.709291	-0.206715	0.807256	0.639469	-0.143226	0.0138805	1.28277	0.39779	0	0	0.57294	-0.260352	-0.0788441	1.23404	0.370862	0	0	-0.670739	-0.0319763	0.0553599	0.483526	-0.240181	0.778008	0.283855	1.05464	0	0	0.414705	-0.178679	0.336668	0.524697	1.11478	0	0
44.96	-3.13661	1.4857	-1.56483	0.709785	-0.206221	0.811239	0.628558	-0.144683	0.00864379	1.26542	0.392289	0	0	0.562075	-0.260494	-0.0843161	1.21601	0.364415	0	0	-0.665856	-0.0329572	0.0550713	0.479382	-0.236122	0.777386	0.284064	1.06296	0	0	0.411504	-0.177599	0.335299	0.530008	1.11962	0	0
44.97	-3.13697	1.48781	-1.56315	0.71034	-0.205913	0.815186	0.61905	-0.144949	0.00342783	1.24679	0.386241	0	0	0.552809	-0.260399	-0.0887869	1.19616	0.357548	0	0	-0.659337	-0.0331424	0.0545852	0.47528	-0.231523	0.776843	0.283132	1.07253	0	0	0.408591	-0.177177	0.336222	0.535394	1.1256	0	0
44.98	-3.1403	1.49005	-1.5589	0.710911	-0.205558	0.819215	0.608777	-0.144483	-0.00151706	1.22668	0.38041	0	0	0.543052	-0.260663	-0.093607	1.1756	0.350674	0	0	-0.652408	-0.0332098	0.0546893	0.470616	-0.227149	0.77638	0.281727	1.08426	0	0	0.405644	-0.176768	0.337955	0.539801	1.13146	0	0
44.99	3.13868	1.49155	-1.55371	0.711431	-0.205021	0.823391	0.597104	-0.144169	-0.00684328	1.20596	0.374194	0	0	0.531937	-0.260976	-0.0986467	1.15455	0.343746	0	0	-0.645762	-0.0329923	0.0549245	0.465285	-0.223038	0.775546	0.279844	1.09734	0	0	0.402426	-0.176271	0.339826	0.543344	1.13595	0	0
45	3.13337	1.49305	-1.54703	0.711878	-0.204347	0.827679	0.58491	-0.144196	-0.0128951	1.1847	0.367488	0	0	0.520431	-0.261054	-0.103619	1.13281	0.336477	0	0	-0.638713	-0.0323514	0.0549351	0.459225	-0.219517	0.77111	0.280066	1.10754	0	0	0.398513	-0.176229	0.342846	0.547679	1.14044	0	0
45.01	3.1294	1.49522	-1.54173	0.712307	-0.203667	0.832002	0.573191	-0.144306	-0.0188939	1.16278	0.360583	0	0	0.509366	-0.260949	-0.109065	1.1104	0.328291	0	0	-0.630859	-0.0318548	0.0549355	0.452627	-0.216326	0.764809	0.281519	1.11487	0	0	0.394402	-0.176469	0.346717	0.55181	1.14576	0	0
45.02	3.1255	1.49738	-1.53638	0.712748	-0.202935	0.836463	0.560699	-0.144447	-0.0252294	1.13966	0.353311	0	0	0.497882	-0.260662	-0.114566	1.08726	0.319432	0	0	-0.622949	-0.0313604	0.0550428	0.44533	-0.213529	0.760262	0.28321	1.12199	0	0	0.390353	-0.176925	0.350894	0.555087	1.15221	0	0
45.03	3.11996	1.49927	-1.52923	0.713142	-0.202142	0.84104	0.547311	-0.144749	-0.0323033	1.11563	0.345635	0	0	0.485599	-0.260331	-0.120238	1.06319	0.31047	0	0	-0.615142	-0.0305532	0.0552685	0.437649	-0.211205	0.755164	0.285421	1.12827	0	0	0.386179	-0.177481	0.35512	0.558134	1.16062	0	0
45.04	3.11364	1.50151	-1.52158	0.713585	-0.201318	0.845593	0.534097	-0.144827	-0.0394339	1.09111	0.337781	0	0	0.473241	-0.260252	-0.126545	1.03854	0.301451	0	0	-0.606752	-0.0299377	0.0557117	0.429698	-0.210053	0.757223	0.2897	1.1199	0	0	0.381514	-0.18009	0.367115	0.564836	1.14905	0	0
45.05	3.104	1.50401	-1.51113	0.714046	-0.200477	0.85018	0.520606	-0.144436	-0.0465265	1.06531	0.329648	0	0	0.460577	-0.260327	-0.133258	1.01307	0.292227	0	0	-0.598119	-0.0293689	0.0566256	0.421577	-0.208274	0.751823	0.29298	1.12464	0	0	0.376524	-0.18008	0.366472	0.568566	1.16696	0	0
45.06	3.09473	1.50612	-1.50114	0.714509	-0.199551	0.854863	0.506298	-0.143976	-0.0536745	1.03886	0.321016	0	0	0.446673	-0.260611	-0.141193	0.98641	0.282862	0	0	-0.589661	-0.0288677	0.0578427	0.413055	-0.20697	0.748241	0.29685	1.12431	0	0	0.371506	-0.180635	0.368807	0.572647	1.17489	0	0
45.07	3.0869	1.50814	-1.4919	0.71484	-0.198549	0.859533	0.491576	-0.144227	-0.0617546	1.01219	0.311984	0	0	0.432492	-0.260603	-0.149596	0.959183	0.273002	0	0	-0.580951	-0.0279321	0.058404	0.404271	-0.206136	0.746314	0.301448	1.12058	0	0	0.366134	-0.181641	0.372708	0.577377	1.17599	0	0
45.08	3.08474	1.51048	-1.488	0.715097	-0.197455	0.864176	0.476762	-0.145328	-0.0706686	0.985156	0.303	0	0	0.418147	-0.259499	-0.157594	0.931185	0.262661	0	0	-0.571663	-0.0271258	0.0585334	0.395069	-0.20573	0.745691	0.306703	1.11307	0	0	0.360449	-0.18307	0.377824	0.581628	1.17397	0	0
45.09	3.08495	1.51089	-1.48698	0.715491	-0.196241	0.869082	0.458472	-0.145823	-0.0796697	0.955614	0.293646	0	0	0.400259	-0.25878	-0.167023	0.901232	0.251271	0	0	-0.564311	-0.0266387	0.0590874	0.386124	-0.208269	0.767477	0.316709	1.06151	0	0	0.354915	-0.188166	0.397354	0.590181	1.13863	0	0
45.1	3.0831	1.51272	-1.48468	0.71592	-0.195019	0.873812	0.442144	-0.145911	-0.0880729	0.926237	0.283927	0	0	0.383751	-0.25812	-0.177038	0.871272	0.239787	0	0	-0.555437	-0.026501	0.0604475	0.376902	-0.207884	0.76717	0.321586	1.05346	0	0	0.349037	-0.190185	0.404011	0.595372	1.13204	0	0
45.11	3.08323	1.5156	-1.48472	0.716381	-0.193761	0.878334	0.42733	-0.145945	-0.0960082	0.897296	0.273796	0	0	0.368175	-0.257134	-0.187458	0.841209	0.228655	0	0	-0.545062	-0.0267107	0.0619848	0.36764	-0.207217	0.767079	0.325537	1.04723	0	0	0.342846	-0.192035	0.409855	0.599793	1.12609	0	0
45.12	-3.08384	1.51375	-1.605	0.716964	-0.194565	0.885638	0.4056	-0.151293	-0.101913	0.85501	0.252036	0	0	0.346241	-0.251319	-0.208233	0.805418	0.203587	0	0	-0.549099	-0.0348967	0.0638839	0.367648	-0.207118	0.76933	0.329796	1.04058	0	0	0.34645	-0.193332	0.417361	0.601865	1.11752	0	0
45.13	3.01028	1.5227	-1.41645	0.716764	-0.192403	0.88789	0.397844	-0.142944	-0.115162	0.828754	0.245189	0	0	0.337635	-0.256012	-0.208158	0.776839	0.201884	0	0	-0.52589	-0.0235962	0.0700746	0.35386	-0.211207	0.773238	0.335363	1.03976	0	0	0.333286	-0.192229	0.422503	0.606527	1.1119	0	0
45.14	3.00149	1.52386	-1.40655	0.717014	-0.190884	0.892445	0.378762	-0.143135	-0.126788	0.796102	0.234102	0	0	0.31895	-0.254078	-0.218139	0.743696	0.189695	0	0	-0.51665	-0.022471	0.0708082	0.345321	-0.210695	0.775814	0.337565	1.03898	0	0	0.326587	-0.19455	0.429318	0.610739	1.10689	0	0
45.15	2.9927	1.52327	-1.39549	0.717101	-0.189174	0.897138	0.356017	-0.143434	-0.140824	0.76154	0.223116	0	0	0.297644	-0.251917	-0.228171	0.708818	0.177012	0	0	-0.508942	-0.0203777	0.0705241	0.336959	-0.210151	0.778843	0.339023	1.03933	0	0	0.319738	-0.196765	0.435835	0.61441	1.1022	0	0
45.16	2.97108	1.51871	-1.37023	0.717152	-0.18694	0.902213	0.325633	-0.142229	-0.158773	0.72271	0.212088	0	0	0.270719	-0.251476	-0.239518	0.671651	0.163889	0	0	-0.504477	-0.0164278	0.0695783	0.328375	-0.209282	0.782063	0.339633	1.04018	0	0	0.312161	-0.199125	0.441623	0.61869	1.09756	0	0
45.17	2.98895	1.51397	-1.38162	0.718013	-0.183517	0.906366	0.295221	-0.141159	-0.174102	0.689908	0.207091	0	0	0.24315	-0.252145	-0.254673	0.636433	0.153648	0	0	-0.496437	-0.015564	0.0658165	0.315563	-0.204462	0.784975	0.339031	1.04113	0	0	0.301275	-0.205949	0.447932	0.625479	1.09434	0	0
45.18	2.89588	1.51884	-1.29245	0.717819	-0.183375	0.910757	0.280415	-0.135562	-0.1851	0.647724	0.186523	0	0	0.230038	-0.252056	-0.265955	0.601916	0.136617	0	0	-0.4858	-0.010438	0.0710155	0.312872	-0.207843	0.790395	0.340247	1.04306	0	0	0.296821	-0.203211	0.449645	0.626073	1.09152	0	0
